<svg width="367" height="56" viewBox="0 0 367 56" fill="none" xmlns="http://www.w3.org/2000/svg">
<path fill-rule="evenodd" clip-rule="evenodd" d="M0 0H80.7192V18.3263L92.1768 28.0006L80.7192 37.6749V56H0V0Z" fill="white"/>
<path fill-rule="evenodd" clip-rule="evenodd" d="M80.7192 18.3263L92.1768 28.0006L80.7192 37.6749V56H0V0H80.7192V18.3263ZM4.44734 4.44848V51.5515H76.2719V35.6086L85.2809 28.0006L76.2719 20.3926V4.44848H4.44734Z" fill="black"/>
<path d="M18.7084 34.2944H23.6196V26.5184C23.6196 26.0069 23.6537 24.3016 24.5745 23.4149C25.052 22.9715 25.6318 22.801 26.2798 22.801C26.7913 22.801 27.4052 22.9033 27.9168 23.4149C28.6671 24.1652 28.7012 25.3589 28.7012 26.382V34.2944H33.6123V26.7231C33.6123 25.734 33.7147 24.5404 34.3627 23.7218C34.7719 23.1762 35.454 22.801 36.2725 22.801C36.9887 22.801 37.6367 23.108 38.046 23.6195C38.694 24.438 38.694 25.8022 38.694 26.5867V34.2944H43.6051V24.6768C43.6051 23.5854 43.5028 21.5391 42.0363 20.1408C41.1155 19.2541 39.6148 18.7084 37.7732 18.7084C36.5795 18.7084 35.5904 18.913 34.5332 19.561C33.5441 20.1749 32.9643 20.8911 32.5892 21.505C32.1799 20.5842 31.5319 19.8339 30.7475 19.3905C29.7244 18.7766 28.5307 18.7084 27.8827 18.7084C26.7231 18.7084 24.8814 18.9472 23.6196 20.857V19.0836H18.7084V34.2944Z" fill="black"/>
<path d="M46.1267 42.0989H51.6518L63.8955 19.0781H58.3705L54.1755 27.3315L49.8783 19.0781H44.2169L51.4812 32.3449L46.1267 42.0989Z" fill="black"/>
<path d="M117.345 24.5299V19.1287H113.201V12.4237H106.496V19.1287H104.168V24.5299H106.496V39.8954H113.201V24.5299H117.345Z" fill="black"/>
<path d="M134.761 21.4661C132.852 18.8586 130.012 18.4396 128.243 18.4396C125.356 18.4396 122.841 19.4639 121.025 21.2799C119.116 23.1889 117.813 26.1689 117.813 29.661C117.813 32.4082 118.651 35.1088 120.839 37.4369C123.121 39.8582 125.635 40.6031 128.615 40.6031C130.338 40.6031 132.945 40.1841 134.761 37.3904V39.9047H141.466V19.138H134.761V21.4661ZM129.919 24.2133C131.129 24.2133 132.619 24.6789 133.644 25.6567C134.622 26.5879 135.18 27.9848 135.18 29.4748C135.18 31.2442 134.435 32.5479 133.551 33.386C132.666 34.2707 131.409 34.8294 130.059 34.8294C128.475 34.8294 127.032 34.1776 126.101 33.1998C125.495 32.5479 124.704 31.3373 124.704 29.4748C124.704 27.6123 125.542 26.4017 126.24 25.7033C127.125 24.8186 128.475 24.2133 129.919 24.2133Z" fill="black"/>
<path d="M152.171 5.95981H145.466V39.9036H152.171V5.95981Z" fill="black"/>
<path d="M156.367 5.95981V39.9036H163.072V30.9637L171.08 39.9036H180.113L169.544 28.5425L179.415 19.1369H170.615L163.072 26.7731V5.95981H156.367Z" fill="black"/>
<path d="M201.623 24.5299V19.1287H197.478V12.4237H190.773V19.1287H188.445V24.5299H190.773V39.8954H197.478V24.5299H201.623Z" fill="black"/>
<path d="M226.489 29.5214C226.489 26.8673 225.464 23.8873 223.369 21.792C221.507 19.9295 218.34 18.4396 214.29 18.4396C210.239 18.4396 207.072 19.9295 205.21 21.792C203.115 23.8873 202.09 26.8673 202.09 29.5214C202.09 32.1754 203.115 35.1554 205.21 37.2507C207.072 39.1132 210.239 40.6031 214.29 40.6031C218.34 40.6031 221.507 39.1132 223.369 37.2507C225.464 35.1554 226.489 32.1754 226.489 29.5214ZM214.29 24.1201C215.826 24.1201 217.083 24.6323 218.061 25.6101C219.039 26.5879 219.598 27.8451 219.598 29.5214C219.598 31.1976 219.039 32.4548 218.061 33.4326C217.083 34.4104 215.826 34.9226 214.336 34.9226C212.567 34.9226 211.356 34.2707 210.518 33.4326C209.726 32.641 208.981 31.4304 208.981 29.5214C208.981 27.8451 209.54 26.5879 210.518 25.6101C211.496 24.6323 212.753 24.1201 214.29 24.1201Z" fill="black"/>
<path d="M238.734 39.8977H245.439V29.2815C245.439 28.5831 245.486 26.255 246.743 25.0444C247.395 24.4391 248.186 24.2063 249.071 24.2063C249.769 24.2063 250.607 24.3459 251.306 25.0444C252.33 26.0687 252.377 27.6984 252.377 29.0953V39.8977H259.082V29.5609C259.082 28.2106 259.221 26.5809 260.106 25.4634C260.665 24.7184 261.596 24.2063 262.714 24.2063C263.691 24.2063 264.576 24.6253 265.135 25.3238C266.02 26.4412 266.02 28.3037 266.02 29.3747V39.8977H272.725V26.7672C272.725 25.2772 272.585 22.4835 270.583 20.5744C269.325 19.3638 267.277 18.6188 264.762 18.6188C263.133 18.6188 261.782 18.8982 260.339 19.7829C258.989 20.621 258.197 21.5988 257.685 22.4369C257.126 21.1797 256.241 20.1554 255.171 19.55C253.774 18.7119 252.144 18.6188 251.259 18.6188C249.676 18.6188 247.162 18.9447 245.439 21.5522V19.131H238.734V39.8977Z" fill="black"/>
<path d="M275.706 50.5636H283.249L299.965 19.1341H292.422L286.694 30.4022L280.828 19.1341H273.098L283.016 37.2468L275.706 50.5636Z" fill="black"/>
<path d="M315.889 20.2089C314.212 19.2311 312.07 18.4396 308.997 18.4396C307.088 18.4396 304.574 18.8121 302.711 20.5349C301.501 21.6523 300.709 23.3286 300.709 25.3308C300.709 26.9139 301.221 28.0779 302.199 29.1023C303.084 29.987 304.341 30.6388 305.552 31.0113L307.228 31.5235C308.206 31.8029 308.811 31.9891 309.277 32.2685C309.882 32.641 310.022 33.1066 310.022 33.4791C310.022 33.9913 309.742 34.5035 309.323 34.8294C308.718 35.2951 307.647 35.2951 307.228 35.2951C306.343 35.2951 305.365 35.1088 304.434 34.6432C303.736 34.3173 302.805 33.6654 302.153 33.1066L299.312 37.6232C302.013 39.9978 305.04 40.6031 307.833 40.6031C310.022 40.6031 312.536 40.2772 314.585 38.2285C315.516 37.2972 316.727 35.5279 316.727 32.7807C316.727 31.1976 316.308 29.9404 315.097 28.8229C314.026 27.8451 312.815 27.3795 311.651 27.007L309.882 26.4483C309.044 26.1689 308.345 26.0292 307.88 25.7498C307.554 25.5636 307.228 25.2842 307.228 24.8186C307.228 24.4926 307.414 24.1201 307.647 23.8873C308.066 23.4683 308.858 23.282 309.556 23.282C310.86 23.282 312.21 23.8408 313.235 24.4461L315.889 20.2089Z" fill="black"/>
<path d="M325.337 26.6811C325.524 25.7498 325.989 25.0048 326.501 24.4461C327.153 23.7942 328.178 23.0958 329.901 23.0958C331.251 23.0958 332.322 23.5614 333.067 24.2598C334.045 25.1911 334.371 26.4948 334.417 26.6811H325.337ZM340.61 29.987C340.61 27.4261 340.144 24.1667 337.676 21.5592C335.116 18.8586 331.763 18.4396 329.435 18.4396C327.107 18.4396 323.987 18.9052 321.473 21.4195C319.377 23.5614 318.307 26.6345 318.307 29.6145C318.307 33.0601 319.61 35.8072 321.426 37.6232C323.847 40.0444 326.595 40.6031 329.714 40.6031C332.042 40.6031 334.277 40.2772 336.28 39.0666C337.49 38.3216 339.353 36.785 340.284 33.8516L333.951 33.1998C333.393 34.3638 332.601 34.876 332.508 34.9226C331.81 35.3416 330.785 35.5279 329.807 35.5279C328.783 35.5279 327.386 35.3416 326.362 34.2241C325.524 33.2929 325.105 31.8029 325.105 30.6854H340.61V29.987Z" fill="black"/>
<path d="M350.296 5.95981H343.591V39.9036H350.296V5.95981Z" fill="black"/>
<path d="M366.87 24.535V19.1338H361.562V15.6416C361.562 14.6638 361.562 13.0341 362.307 12.0563C362.586 11.6838 363.238 11.2182 364.262 11.2182C365.1 11.2182 366.078 11.5441 366.823 12.0098V6.14292C365.706 5.72386 364.495 5.44449 363.005 5.44449C360.444 5.44449 358.535 6.37573 357.185 7.81916C355.089 10.0541 354.857 12.7082 354.857 15.0363V19.1338H352.435V24.535H354.857V39.9005H361.562V24.535H366.87Z" fill="black"/>
</svg>
